<svg xmlns="http://www.w3.org/2000/svg" xmlns:xlink="http://www.w3.org/1999/xlink" width="50" zoomAndPan="magnify" viewBox="0 0 37.5 30.000001" height="40" preserveAspectRatio="xMidYMid meet" version="1.0"><defs><clipPath id="5d77a42586"><path d="M 22 25 L 28 25 L 28 29.03125 L 22 29.03125 Z M 22 25 " clip-rule="nonzero"/></clipPath><clipPath id="7e8972daf9"><path d="M 16 27 L 19 27 L 19 29.03125 L 16 29.03125 Z M 16 27 " clip-rule="nonzero"/></clipPath><clipPath id="663ff70e0d"><path d="M 4.554688 2.902344 L 33.585938 2.902344 L 33.585938 29.03125 L 4.554688 29.03125 Z M 4.554688 2.902344 " clip-rule="nonzero"/></clipPath><clipPath id="575401a088"><path d="M 7.480469 18.339844 L 12.859375 18.339844 L 12.859375 23.714844 L 7.480469 23.714844 Z M 7.480469 18.339844 " clip-rule="nonzero"/></clipPath></defs><g clip-path="url(#5d77a42586)"><path fill="#000000" d="M 23.4375 29.753906 C 23.75 30.066406 24.171875 30.214844 24.625 30.214844 C 25.269531 30.214844 25.980469 29.917969 26.542969 29.347656 C 27 28.886719 27.300781 28.3125 27.382812 27.738281 C 27.476562 27.132812 27.320312 26.589844 26.945312 26.214844 C 26.199219 25.460938 24.808594 25.644531 23.839844 26.621094 C 22.875 27.59375 22.695312 29 23.4375 29.753906 Z M 24.25 27.03125 C 24.707031 26.570312 25.269531 26.324219 25.753906 26.324219 C 26.0625 26.324219 26.335938 26.421875 26.539062 26.625 C 26.777344 26.867188 26.875 27.234375 26.8125 27.652344 C 26.746094 28.105469 26.507812 28.5625 26.136719 28.933594 C 25.394531 29.683594 24.367188 29.863281 23.847656 29.339844 C 23.328125 28.816406 23.507812 27.78125 24.25 27.03125 Z M 24.25 27.03125 " fill-opacity="1" fill-rule="nonzero"/></g><path fill="#000000" d="M 21.546875 24.304688 C 21.367188 24.488281 21.265625 24.730469 21.265625 24.988281 C 21.265625 25.246094 21.367188 25.488281 21.546875 25.671875 C 21.726562 25.851562 21.96875 25.953125 22.226562 25.953125 C 22.480469 25.953125 22.722656 25.855469 22.902344 25.671875 C 23.082031 25.488281 23.183594 25.246094 23.183594 24.988281 C 23.183594 24.730469 23.082031 24.488281 22.902344 24.304688 C 22.542969 23.9375 21.910156 23.9375 21.546875 24.304688 Z M 22.605469 24.988281 C 22.605469 25.089844 22.566406 25.1875 22.492188 25.257812 C 22.351562 25.40625 22.097656 25.40625 21.957031 25.257812 C 21.882812 25.1875 21.84375 25.089844 21.84375 24.988281 C 21.84375 24.886719 21.882812 24.789062 21.957031 24.714844 C 22.027344 24.644531 22.125 24.605469 22.226562 24.605469 C 22.328125 24.605469 22.421875 24.644531 22.492188 24.714844 C 22.566406 24.789062 22.605469 24.886719 22.605469 24.988281 Z M 22.605469 24.988281 " fill-opacity="1" fill-rule="nonzero"/><g clip-path="url(#7e8972daf9)"><path fill="#000000" d="M 18.179688 27.699219 C 17.9375 27.617188 17.675781 27.636719 17.449219 27.757812 C 17.21875 27.875 17.050781 28.074219 16.972656 28.320312 C 16.894531 28.5625 16.914062 28.828125 17.03125 29.054688 C 17.148438 29.285156 17.34375 29.457031 17.589844 29.539062 C 17.6875 29.570312 17.785156 29.585938 17.882812 29.585938 C 18.285156 29.585938 18.664062 29.324219 18.796875 28.917969 C 18.875 28.671875 18.855469 28.40625 18.738281 28.179688 C 18.621094 27.949219 18.421875 27.777344 18.179688 27.699219 Z M 18.246094 28.734375 C 18.179688 28.9375 17.964844 29.046875 17.765625 28.980469 C 17.667969 28.949219 17.589844 28.882812 17.542969 28.789062 C 17.5 28.699219 17.488281 28.59375 17.523438 28.5 C 17.554688 28.402344 17.621094 28.320312 17.710938 28.273438 C 17.765625 28.246094 17.824219 28.234375 17.882812 28.234375 C 17.921875 28.234375 17.960938 28.238281 18 28.25 C 18.097656 28.28125 18.175781 28.351562 18.222656 28.441406 C 18.269531 28.535156 18.277344 28.636719 18.246094 28.734375 Z M 18.246094 28.734375 " fill-opacity="1" fill-rule="nonzero"/></g><g clip-path="url(#663ff70e0d)"><path fill="#000000" d="M 5.046875 31.109375 L 13.453125 31.109375 L 13.441406 31.144531 C 13.40625 31.261719 13.417969 31.382812 13.476562 31.488281 C 13.535156 31.59375 13.625 31.667969 13.730469 31.703125 L 27.425781 36.179688 C 27.488281 36.21875 27.5625 36.242188 27.636719 36.242188 C 27.753906 36.242188 27.863281 36.203125 27.949219 36.117188 L 33.25 30.765625 C 33.421875 30.589844 33.421875 30.304688 33.257812 30.136719 L 24.273438 21.070312 L 24.273438 7.867188 C 24.273438 7.855469 24.265625 7.84375 24.265625 7.839844 C 24.265625 7.816406 24.261719 7.792969 24.253906 7.773438 C 24.242188 7.746094 24.230469 7.722656 24.214844 7.699219 C 24.203125 7.6875 24.203125 7.667969 24.191406 7.652344 L 22.484375 5.925781 C 21.566406 4.996094 20.734375 4.160156 19.585938 3.007812 C 19.53125 2.9375 19.453125 2.886719 19.359375 2.886719 L 5.046875 2.886719 C 4.890625 2.886719 4.757812 3.019531 4.757812 3.175781 L 4.757812 30.820312 C 4.757812 30.980469 4.890625 31.109375 5.046875 31.109375 Z M 14.03125 31.1875 L 14.125 30.914062 L 16.257812 24.253906 L 17.621094 24.699219 L 17.132812 25.195312 C 17.050781 25.277344 17.003906 25.394531 17.003906 25.511719 C 17.003906 25.632812 17.050781 25.742188 17.136719 25.832031 L 20.214844 28.941406 C 20.15625 29.066406 20.105469 29.195312 20.0625 29.328125 C 19.636719 30.632812 20.105469 31.972656 21.109375 32.304688 C 21.257812 32.355469 21.414062 32.378906 21.570312 32.378906 C 22.0625 32.378906 22.558594 32.136719 22.96875 31.714844 L 26.476562 35.257812 Z M 20.613281 29.503906 C 20.625 29.460938 20.636719 29.421875 20.652344 29.378906 L 22.5625 31.3125 C 22.183594 31.714844 21.699219 31.886719 21.289062 31.75 C 20.589844 31.519531 20.285156 30.511719 20.613281 29.503906 Z M 32.746094 30.445312 L 27.636719 35.609375 L 23.164062 31.09375 L 20.773438 28.679688 L 17.632812 25.511719 L 18.367188 24.777344 L 22.75 20.355469 Z M 5.335938 3.46875 L 19.066406 3.46875 L 19.066406 7.863281 C 19.066406 7.941406 19.101562 8.011719 19.152344 8.066406 C 19.203125 8.125 19.277344 8.160156 19.359375 8.160156 L 23.695312 8.160156 L 23.695312 20.488281 L 23.058594 19.847656 C 22.886719 19.671875 22.605469 19.671875 22.429688 19.847656 L 18.082031 24.234375 L 16.324219 23.65625 C 16.207031 23.617188 16.082031 23.621094 15.96875 23.679688 C 15.859375 23.738281 15.785156 23.839844 15.757812 23.945312 L 13.636719 30.527344 L 5.335938 30.527344 Z M 5.335938 3.46875 " fill-opacity="1" fill-rule="nonzero"/></g><path fill="#000000" d="M 6.667969 4.457031 L 16.410156 4.457031 C 16.488281 4.457031 16.558594 4.488281 16.613281 4.542969 C 16.667969 4.601562 16.699219 4.667969 16.699219 4.75 L 16.699219 6.742188 C 16.699219 6.824219 16.667969 6.890625 16.613281 6.949219 C 16.558594 7.007812 16.488281 7.035156 16.410156 7.035156 L 6.667969 7.035156 C 6.589844 7.035156 6.523438 7.007812 6.464844 6.949219 C 6.410156 6.890625 6.382812 6.824219 6.382812 6.742188 L 6.382812 4.75 C 6.382812 4.667969 6.410156 4.601562 6.464844 4.542969 C 6.523438 4.488281 6.589844 4.457031 6.667969 4.457031 Z M 6.667969 4.457031 " fill-opacity="1" fill-rule="nonzero"/><path fill="#000000" d="M 6.667969 11.1875 L 16.410156 11.1875 C 16.570312 11.1875 16.699219 11.0625 16.699219 10.898438 L 16.699219 8.90625 C 16.699219 8.742188 16.570312 8.613281 16.410156 8.613281 L 6.667969 8.613281 C 6.515625 8.613281 6.382812 8.742188 6.382812 8.90625 L 6.382812 10.898438 C 6.382812 11.0625 6.515625 11.1875 6.667969 11.1875 Z M 6.667969 11.1875 " fill-opacity="1" fill-rule="nonzero"/><path fill="#000000" d="M 22.65625 15.050781 L 22.65625 13.058594 C 22.65625 12.894531 22.527344 12.769531 22.367188 12.769531 L 6.667969 12.769531 C 6.515625 12.769531 6.382812 12.894531 6.382812 13.058594 L 6.382812 15.050781 C 6.382812 15.210938 6.515625 15.34375 6.667969 15.34375 L 22.367188 15.34375 C 22.527344 15.34375 22.65625 15.210938 22.65625 15.050781 Z M 22.65625 15.050781 " fill-opacity="1" fill-rule="nonzero"/><g clip-path="url(#575401a088)"><path fill="#000000" d="M 10.171875 18.339844 C 9.996094 18.339844 9.820312 18.355469 9.644531 18.390625 C 9.472656 18.425781 9.304688 18.476562 9.140625 18.542969 C 8.976562 18.609375 8.824219 18.695312 8.675781 18.792969 C 8.53125 18.890625 8.394531 19.003906 8.269531 19.128906 C 8.144531 19.253906 8.03125 19.386719 7.933594 19.535156 C 7.835938 19.679688 7.753906 19.835938 7.6875 20 C 7.617188 20.164062 7.566406 20.332031 7.535156 20.503906 C 7.5 20.675781 7.480469 20.851562 7.480469 21.027344 C 7.480469 21.203125 7.5 21.378906 7.535156 21.550781 C 7.566406 21.726562 7.617188 21.894531 7.6875 22.058594 C 7.753906 22.21875 7.835938 22.375 7.933594 22.523438 C 8.03125 22.667969 8.144531 22.804688 8.269531 22.929688 C 8.394531 23.054688 8.53125 23.167969 8.675781 23.261719 C 8.824219 23.363281 8.976562 23.445312 9.140625 23.511719 C 9.304688 23.582031 9.472656 23.628906 9.644531 23.664062 C 9.820312 23.699219 9.996094 23.714844 10.171875 23.714844 C 10.347656 23.714844 10.523438 23.699219 10.695312 23.664062 C 10.867188 23.628906 11.035156 23.582031 11.199219 23.511719 C 11.363281 23.445312 11.515625 23.363281 11.664062 23.261719 C 11.8125 23.167969 11.945312 23.054688 12.070312 22.929688 C 12.195312 22.804688 12.308594 22.667969 12.40625 22.523438 C 12.503906 22.375 12.585938 22.21875 12.65625 22.058594 C 12.722656 21.894531 12.773438 21.726562 12.808594 21.550781 C 12.84375 21.378906 12.859375 21.203125 12.859375 21.027344 C 12.859375 20.851562 12.84375 20.675781 12.808594 20.503906 C 12.773438 20.332031 12.722656 20.164062 12.65625 20 C 12.585938 19.835938 12.503906 19.679688 12.40625 19.535156 C 12.308594 19.386719 12.195312 19.253906 12.070312 19.128906 C 11.945312 19.003906 11.8125 18.890625 11.664062 18.792969 C 11.515625 18.695312 11.363281 18.609375 11.199219 18.542969 C 11.035156 18.476562 10.867188 18.425781 10.695312 18.390625 C 10.523438 18.355469 10.347656 18.339844 10.171875 18.339844 Z M 10.554688 21.964844 C 10.53125 21.96875 10.507812 21.96875 10.484375 21.960938 C 10.460938 21.953125 10.4375 21.945312 10.421875 21.925781 C 10.402344 21.910156 10.386719 21.890625 10.378906 21.871094 C 10.367188 21.847656 10.363281 21.824219 10.363281 21.800781 L 10.363281 21.359375 C 10.363281 21.320312 10.375 21.285156 10.398438 21.257812 C 10.421875 21.226562 10.453125 21.207031 10.492188 21.199219 C 10.5625 21.183594 10.625 21.152344 10.6875 21.113281 C 10.746094 21.070312 10.796875 21.019531 10.839844 20.960938 C 10.878906 20.898438 10.910156 20.835938 10.925781 20.761719 C 10.941406 20.691406 10.941406 20.621094 10.933594 20.546875 C 10.921875 20.476562 10.894531 20.410156 10.859375 20.34375 C 10.824219 20.28125 10.777344 20.230469 10.71875 20.183594 C 10.660156 20.136719 10.597656 20.105469 10.527344 20.085938 C 10.457031 20.0625 10.386719 20.054688 10.3125 20.0625 C 10.242188 20.070312 10.171875 20.085938 10.109375 20.121094 C 10.042969 20.152344 9.984375 20.195312 9.9375 20.25 C 9.886719 20.304688 9.847656 20.363281 9.824219 20.433594 C 9.796875 20.5 9.785156 20.570312 9.785156 20.644531 L 9.785156 22.46875 C 9.785156 22.507812 9.777344 22.542969 9.765625 22.578125 C 9.75 22.613281 9.730469 22.644531 9.703125 22.671875 C 9.675781 22.699219 9.644531 22.71875 9.609375 22.734375 C 9.574219 22.75 9.535156 22.757812 9.5 22.757812 L 9.304688 22.757812 C 9.269531 22.757812 9.230469 22.75 9.195312 22.734375 C 9.160156 22.71875 9.128906 22.699219 9.101562 22.671875 C 9.074219 22.644531 9.054688 22.613281 9.039062 22.578125 C 9.023438 22.542969 9.019531 22.507812 9.019531 22.46875 L 9.019531 20.679688 C 9.015625 20.59375 9.023438 20.503906 9.039062 20.421875 C 9.054688 20.335938 9.078125 20.253906 9.109375 20.171875 C 9.140625 20.089844 9.179688 20.015625 9.226562 19.941406 C 9.269531 19.867188 9.324219 19.796875 9.382812 19.734375 C 9.441406 19.671875 9.503906 19.613281 9.574219 19.5625 C 9.644531 19.511719 9.71875 19.46875 9.796875 19.429688 C 9.875 19.394531 9.957031 19.363281 10.039062 19.339844 C 10.125 19.320312 10.210938 19.304688 10.296875 19.300781 C 10.378906 19.296875 10.460938 19.304688 10.542969 19.320312 C 10.625 19.335938 10.707031 19.355469 10.785156 19.386719 C 10.863281 19.414062 10.9375 19.449219 11.007812 19.496094 C 11.082031 19.539062 11.148438 19.585938 11.210938 19.640625 C 11.273438 19.699219 11.328125 19.757812 11.378906 19.824219 C 11.429688 19.890625 11.472656 19.960938 11.511719 20.035156 C 11.550781 20.113281 11.582031 20.1875 11.601562 20.269531 C 11.625 20.347656 11.640625 20.429688 11.652344 20.515625 C 11.660156 20.597656 11.660156 20.679688 11.652344 20.765625 C 11.644531 20.847656 11.628906 20.929688 11.605469 21.007812 C 11.582031 21.089844 11.554688 21.167969 11.515625 21.242188 C 11.480469 21.316406 11.4375 21.386719 11.386719 21.453125 C 11.335938 21.519531 11.28125 21.582031 11.21875 21.636719 C 11.15625 21.695312 11.089844 21.746094 11.019531 21.789062 C 10.945312 21.832031 10.871094 21.871094 10.792969 21.898438 C 10.71875 21.929688 10.636719 21.953125 10.554688 21.964844 Z M 10.554688 21.964844 " fill-opacity="1" fill-rule="nonzero"/></g></svg>