<svg width="120" height="26" viewBox="0 0 120 26" fill="none" xmlns="http://www.w3.org/2000/svg">
    <path d="M35.0362 6.49536L32.2913 19.1901H12.9165L11.5441 25.5434H5.08577L6.45826 19.1901H0L1.37248 12.8407H7.83073L9.20723 6.49536H2.74896L4.12144 0.14209H29.9505L28.5779 6.49536H15.6655L14.293 12.8407H27.2055L28.5779 6.49536H35.0362Z" fill="black"/>
    <path fill-rule="evenodd" clip-rule="evenodd" d="M119.44 0H115.347L111.507 19.7599H115.6L119.44 0ZM60.6776 12.2788C60.9409 10.8682 61.5221 9.56674 62.4261 8.38451C63.3301 7.20229 64.413 6.26347 65.6698 5.57798C66.9314 4.89249 68.228 4.54975 69.5642 4.54975C70.3937 4.54975 71.1239 4.68387 71.7646 4.94216C72.4054 5.20544 72.9419 5.58295 73.374 6.06974L73.6273 4.79812H77.7204L74.8146 19.7596H70.7215L70.9748 18.5178C70.3341 18.9897 69.6436 19.3524 68.8985 19.6057C68.1534 19.859 67.3686 19.9881 66.544 19.9881C65.2277 19.9881 64.0703 19.6354 63.0719 18.9301C62.0734 18.2247 61.4029 17.3952 61.0551 16.4464C60.7075 15.4977 60.5336 14.6185 60.5336 13.8088C60.5336 13.322 60.5783 12.8103 60.6727 12.2838L60.6776 12.2788ZM64.6316 14.2559C64.8551 14.8768 65.2326 15.3685 65.7592 15.7361C66.2857 16.1037 66.9265 16.2874 67.6766 16.2874C68.4266 16.2874 69.0922 16.1037 69.7777 15.7361C70.4632 15.3685 71.0543 14.8768 71.5411 14.2559C72.0279 13.6349 72.3408 12.9743 72.475 12.2788C72.5147 12.0355 72.5296 11.7871 72.5296 11.5437C72.5296 11.1116 72.4302 10.6396 72.2316 10.133C72.0328 9.62631 71.6603 9.18423 71.1189 8.80672C70.5725 8.42921 69.9417 8.24046 69.2263 8.24046C68.5111 8.24046 67.7809 8.42425 67.0954 8.79182C66.4099 9.15944 65.8337 9.65118 65.3717 10.2721C64.9097 10.893 64.6117 11.5586 64.4826 12.2739C64.4279 12.5371 64.3981 12.7905 64.3981 13.0339C64.3981 13.466 64.4727 13.8733 64.6217 14.246L64.6316 14.2559ZM45.0993 4.79792H49.1925L48.9391 6.03974C49.5799 5.56785 50.2704 5.20523 51.0154 4.9519C51.7605 4.69857 52.5454 4.56943 53.3699 4.56943C54.6863 4.56943 55.8436 4.9221 56.8421 5.62746C57.8405 6.33281 58.516 7.16732 58.8737 8.12601C59.2314 9.08473 59.4101 9.96887 59.4101 10.7786C59.4101 11.2703 59.3655 11.767 59.2711 12.2738C58.988 13.6844 58.4018 14.9858 57.5077 16.1681C56.6135 17.3553 55.5307 18.2842 54.2641 18.9647C52.9924 19.6402 51.691 19.978 50.3548 19.978C49.5451 19.978 48.8198 19.8488 48.1791 19.5856C47.5383 19.3223 46.9919 18.9448 46.5398 18.458L45.1292 25.6855H41.0361L45.0993 4.79792ZM47.6376 14.2557C47.8612 14.8766 48.2487 15.3733 48.7951 15.7509C49.3414 16.1283 49.9723 16.3171 50.6875 16.3171C51.4029 16.3171 52.1331 16.1333 52.8186 15.7658C53.504 15.3981 54.0852 14.9064 54.5522 14.2855C55.024 13.6645 55.3221 12.9989 55.4562 12.2836C55.5108 12.0204 55.5406 11.767 55.5406 11.5236C55.5406 11.0915 55.4413 10.6246 55.2426 10.1279C55.0439 9.63112 54.6763 9.19396 54.1399 8.83133C53.6034 8.46879 52.9676 8.28 52.2324 8.28C51.4972 8.28 50.8167 8.4638 50.1313 8.83133C49.4458 9.19895 48.8596 9.69069 48.3828 10.3116C47.9009 10.9326 47.5979 11.5932 47.4638 12.2886C47.4241 12.532 47.4092 12.7705 47.4092 12.9939C47.4092 13.446 47.4836 13.8682 47.6327 14.2656L47.6376 14.2557ZM84.2167 4.79792H80.1236L76.0604 25.6855H80.1534L81.5642 18.458C82.0161 18.9448 82.5626 19.3223 83.2033 19.5856C83.8442 19.8488 84.5693 19.978 85.379 19.978C86.7152 19.978 88.017 19.6402 89.288 18.9647C90.5545 18.2842 91.638 17.3553 92.5323 16.1681C93.4258 14.9858 94.0126 13.6844 94.2956 12.2738C94.3901 11.767 94.4348 11.2703 94.4348 10.7786C94.4348 9.96887 94.2553 9.08473 93.8979 8.12601C93.5405 7.16732 92.8652 6.33281 91.8666 5.62746C90.8681 4.9221 89.7101 4.56943 88.3945 4.56943C87.5694 4.56943 86.7848 4.69857 86.0397 4.9519C85.2946 5.20523 84.6041 5.56785 83.9634 6.03974L84.2167 4.79792ZM83.8193 15.7509C83.2729 15.3733 82.8855 14.8766 82.6619 14.2557L82.6569 14.2656C82.508 13.8682 82.4334 13.446 82.4334 12.9939C82.4334 12.7705 82.4483 12.532 82.4881 12.2886C82.6222 11.5932 82.9252 10.9326 83.407 10.3116C83.8838 9.69069 84.47 9.19895 85.1555 8.83133C85.841 8.4638 86.5215 8.28 87.2567 8.28C87.9916 8.28 88.6275 8.46879 89.1645 8.83133C89.7005 9.19396 90.0684 9.63112 90.2672 10.1279C90.4652 10.6246 90.565 11.0915 90.565 11.5236C90.565 11.767 90.5353 12.0204 90.4801 12.2836C90.3461 12.9989 90.0483 13.6645 89.5761 14.2855C89.1093 14.9064 88.5285 15.3981 87.8427 15.7658C87.1577 16.1333 86.4271 16.3171 85.7119 16.3171C84.9965 16.3171 84.3657 16.1283 83.8193 15.7509ZM95.7066 12.2788C95.9703 10.8682 96.5668 9.56674 97.5005 8.38451C98.4342 7.20229 99.5563 6.26347 100.873 5.57798C102.189 4.89249 103.536 4.54975 104.912 4.54975C106.113 4.54975 107.196 4.81799 108.155 5.35445C109.113 5.89092 109.868 6.62608 110.415 7.55497C110.962 8.48885 111.235 9.53696 111.235 10.6993V11.0668C111.235 11.9709 111.046 12.8849 110.668 13.8038H99.4328C99.4722 14.3701 99.6316 14.842 99.9145 15.2294C100.197 15.6169 100.57 15.905 101.027 16.0888C101.489 16.2775 102.011 16.372 102.591 16.372C103.232 16.372 103.889 16.2627 104.569 16.049C105.249 15.8355 105.851 15.5175 106.377 15.1052L109.734 16.1236C108.925 17.2909 107.772 18.2247 106.277 18.9301C104.782 19.6354 103.317 19.9881 101.886 19.9881C100.456 19.9881 99.2488 19.6404 98.2004 18.945C97.1528 18.2496 96.4573 17.42 96.0991 16.4613C95.7417 15.5026 95.563 14.6085 95.563 13.779C95.563 13.2873 95.6077 12.7905 95.7023 12.2838L95.7066 12.2788ZM100.024 10.6993H107.276C107.221 10.2472 107.067 9.82996 106.824 9.44254C106.58 9.05512 106.232 8.74715 105.781 8.50873C105.329 8.27026 104.792 8.15601 104.171 8.15601C103.55 8.15601 102.969 8.27523 102.438 8.50873C101.906 8.74216 101.425 9.05512 101.012 9.44254C100.599 9.82996 100.267 10.2472 100.024 10.6993Z" fill="black"/>
</svg>